<svg xmlns="http://www.w3.org/2000/svg" viewBox="0 0 32 32" width="32" height="32">
  <defs>
    <linearGradient id="boardGradient" x1="0%" y1="0%" x2="100%" y2="100%">
      <stop offset="0%" style="stop-color:#f0d9b5;stop-opacity:1" />
      <stop offset="100%" style="stop-color:#b58863;stop-opacity:1" />
    </linearGradient>
    <linearGradient id="pieceGradient" x1="0%" y1="0%" x2="100%" y2="100%">
      <stop offset="0%" style="stop-color:#2c3e50;stop-opacity:1" />
      <stop offset="100%" style="stop-color:#34495e;stop-opacity:1" />
    </linearGradient>
  </defs>
  
  <!-- Chess board background -->
  <rect width="32" height="32" fill="url(#boardGradient)" rx="2"/>
  
  <!-- King piece -->
  <g transform="translate(8, 6)">
    <!-- King base -->
    <rect x="2" y="16" width="4" height="2" fill="url(#pieceGradient)" rx="1"/>
    <!-- King body -->
    <rect x="2.5" y="12" width="3" height="4" fill="url(#pieceGradient)" rx="1"/>
    <!-- King crown -->
    <path d="M 3 12 L 4 8 L 5 10 L 6 8 L 7 12 Z" fill="url(#pieceGradient)"/>
    <!-- King cross -->
    <rect x="3.5" y="6" width="1" height="2" fill="url(#pieceGradient)"/>
    <rect x="3" y="7" width="3" height="1" fill="url(#pieceGradient)"/>
  </g>
  
  <!-- Queen piece -->
  <g transform="translate(20, 6)">
    <!-- Queen base -->
    <rect x="2" y="16" width="4" height="2" fill="url(#pieceGradient)" rx="1"/>
    <!-- Queen body -->
    <rect x="2.5" y="12" width="3" height="4" fill="url(#pieceGradient)" rx="1"/>
    <!-- Queen crown -->
    <path d="M 3 12 L 4 8 L 5 9 L 6 8 L 7 12 Z" fill="url(#pieceGradient)"/>
    <!-- Queen dots -->
    <circle cx="4" cy="10" r="0.5" fill="url(#pieceGradient)"/>
    <circle cx="6" cy="10" r="0.5" fill="url(#pieceGradient)"/>
  </g>
  
  <!-- Chess board pattern overlay -->
  <g opacity="0.1">
    <rect x="0" y="0" width="8" height="8" fill="#b58863"/>
    <rect x="8" y="8" width="8" height="8" fill="#b58863"/>
    <rect x="16" y="0" width="8" height="8" fill="#b58863"/>
    <rect x="24" y="8" width="8" height="8" fill="#b58863"/>
  </g>
</svg> 